<svg width="154" height="44" viewBox="0 0 154 44" fill="none" xmlns="http://www.w3.org/2000/svg">
<g clip-path="url(#clip0_170_1106)">
<path d="M6.16771 30.1636H16.8889V36.1041H0V8.08932H6.1959L6.16771 30.1636Z" fill="#AA346F"/>
<path d="M25.3172 16.7021H19.3257V36.1464H25.3172V16.7021Z" fill="#AA346F"/>
<path d="M22.3213 14.0846C24.1705 14.0846 25.6695 12.55 25.6695 10.657C25.6695 8.7639 24.1705 7.22928 22.3213 7.22928C20.4722 7.22928 18.9731 8.7639 18.9731 10.657C18.9731 12.55 20.4722 14.0846 22.3213 14.0846Z" fill="#AA346F"/>
<path d="M34.3043 16.6398H28.1953V36.0841H34.3043V16.6398Z" fill="#AA346F"/>
<path d="M34.3042 24.4425C34.3042 24.4425 34.6496 20.6645 38.416 21.5009C40.9418 22.0618 40.7656 25.4895 40.7656 25.4895L40.5894 36.0841H46.8064V24.7503C46.8064 24.7503 47.0508 17.6993 41.0593 16.3282C41.0593 16.3282 36.2426 15.0319 34.3042 19.731" fill="#AA346F"/>
<path d="M55.3331 7.91483H49.2241V36.0841H55.3331V7.91483Z" fill="#AA346F"/>
<path d="M55.333 29.9118L56.8015 27.7954L61.7498 36.0841H69.0324L61.0308 23.9314L68.0796 15.8297H60.797L55.333 23.9726" fill="#AA346F"/>
<path d="M85.3493 27.7954C86.7591 20.1922 82.1468 15.3286 76.5383 15.3311C71.3152 15.3336 66.7875 19.9429 67.0224 26.9852V27.0475C67.0224 27.0475 67.0224 40.8829 84.527 35.1493L83.5871 31.0361C71.9566 34.1522 72.8964 27.7954 72.8964 27.7954H85.3493ZM76.3621 19.4443C78.2759 19.4443 79.8278 21.2579 79.8278 23.4952H72.8964C72.8964 21.2579 74.4483 19.4443 76.3621 19.4443Z" fill="#AA346F"/>
<path d="M94.9827 15.3311C90.3117 15.3311 86.5242 20.1024 86.5242 25.9881C86.5242 31.8737 90.3117 36.645 94.9827 36.645C99.6538 36.645 103.441 31.8737 103.441 25.9881C103.441 20.1024 99.6538 15.3311 94.9827 15.3311ZM96.8037 31.7839C94.4999 31.7839 92.6331 29.1889 92.6331 25.9881C92.6331 22.7872 94.4999 20.1922 96.8037 20.1922C99.1075 20.1922 100.974 22.7872 100.974 25.9881C100.974 29.1889 99.1075 31.7839 96.8037 31.7839Z" fill="#AA346F"/>
<path d="M101.19 33.2261L101.327 36.0218H106.784L106.613 7.97714H100.601V18.0221" fill="#AA346F"/>
<path d="M151.843 0H114.132C113.353 0 112.722 0.669654 112.722 1.49571V41.6307C112.722 42.4568 113.353 43.1264 114.132 43.1264H151.843C152.622 43.1264 153.253 42.4568 153.253 41.6307V1.49571C153.253 0.669654 152.622 0 151.843 0Z" fill="#AA346F"/>
<path d="M126.418 16.5675H120.427V36.0118H126.418V16.5675Z" fill="#FCE0F6"/>
<path d="M123.422 13.95C125.272 13.95 126.771 12.4154 126.771 10.5223C126.771 8.62929 125.272 7.09467 123.422 7.09467C121.573 7.09467 120.074 8.62929 120.074 10.5223C120.074 12.4154 121.573 13.95 123.422 13.95Z" fill="#FCE0F6"/>
<path d="M135.405 16.5052H129.296V35.9495H135.405V16.5052Z" fill="#FCE0F6"/>
<path d="M135.405 24.3079C135.405 24.3079 135.751 20.5299 139.517 21.3663C142.043 21.9272 141.867 25.3549 141.867 25.3549L141.69 35.9495H147.908V24.6157C147.908 24.6157 148.152 17.5647 142.16 16.1936C142.16 16.1936 137.344 14.8973 135.405 19.5964" fill="#FCE0F6"/>
</g>
<defs>
<clipPath id="clip0_170_1106">
<rect width="153.253" height="43.1264" fill="white"/>
</clipPath>
</defs>
</svg>
